# xmcd CD database file
#
# Track frame offsets:
#	150
#	22895
#	41872
#	60262
#	76935
#	91690
#	111905
#	128937
#	130645
#	149762
#
# Disc length: 2378 seconds
#
# Revision: 1
# Processed by: cddbd v1.5.2PL0 Copyright (c) Steve Scherf et al.
# Submitted via: CDex 1.70beta3
#
DISCID=7e09480a
DTITLE=インビシブルマンズデスベッド - 寄生虫
DYEAR=2005
DGENRE=Rock
TTITLE0=蠢動
TTITLE1=雨中、御免なさい。
TTITLE2=飛散する僕と悲惨な君
TTITLE3=挫折した殻
TTITLE4=爆砕
TTITLE5=溢れる月光
TTITLE6=君の細い首を絞めてみたい
TTITLE7=寄生虫
TTITLE8=君の性癖とあの感触
TTITLE9=襲来
EXTD=YEAR: 2005
EXTT0=
EXTT1=
EXTT2=
EXTT3=
EXTT4=
EXTT5=
EXTT6=
EXTT7=
EXTT8=
EXTT9=
PLAYORDER=
